<svg id="Capa_1" enable-background="new 0 0 512 512" height="512" viewBox="0 0 512 512" width="512" xmlns="http://www.w3.org/2000/svg"><g><g><path d="m418.782 509.101c-28.985 0-52.566-23.581-52.566-52.566v-6.569c0-23.547-19.157-42.704-42.704-42.704h-38.263c-4.269 0-7.73-3.46-7.73-7.73 0-4.269 3.46-7.73 7.73-7.73h38.263c32.072 0 58.163 26.091 58.163 58.163v6.569c0 20.461 16.646 37.107 37.107 37.107s37.107-16.646 37.107-37.107c0-4.523-.832-8.953-2.474-13.167l-14.517-37.274c-11.975-30.743-18.047-63.06-18.047-96.052v-28.73c0-4.269 3.46-7.73 7.73-7.73 4.269 0 7.73 3.46 7.73 7.73v28.73c0 31.065 5.717 61.495 16.992 90.442l14.517 37.273c2.341 6.009 3.529 12.327 3.529 18.778-.001 28.986-23.582 52.567-52.567 52.567z" fill="#2b4d66"/></g><g><path d="m302.664 430.156h-40.218v-57.72h40.218c2.761 0 5 2.239 5 5v47.72c0 2.762-2.238 5-5 5z" fill="#4a80aa"/></g><path d="m302.664 372.436h-16.51v31.21c0 2.761-2.239 5-5 5h-18.708v21.51h40.218c2.761 0 5-2.239 5-5v-47.72c0-2.761-2.238-5-5-5z" fill="#407093"/><g><path d="m272.796 482.893h-194.845v-224.492h194.845v150.245l-5.065 10.573 5.065 10.937z" fill="#4a80aa"/></g><g><path d="m236.715 258.401v94.208c0 39.456-31.986 71.442-71.442 71.442h-87.322v58.841h194.846v-224.491z" fill="#407093"/></g><g><path d="m57.035 50.73h239.583v207.671h-239.583z" fill="#e7ecf6"/></g><g><path d="m57.036 50.73v27.98c9.593-2.856 19.753-4.398 30.273-4.398h35.431c58.499 0 105.921 47.422 105.921 105.921v78.168h67.958v-207.671z" fill="#d8e2f1"/></g><g><path d="m378.081 240.26c-1.366 0-2.749-.361-4.002-1.122-3.65-2.214-4.814-6.968-2.6-10.617l27.743-45.732c2.213-3.652 6.967-4.816 10.617-2.6 3.65 2.214 4.814 6.968 2.6 10.617l-27.743 45.732c-1.453 2.398-4.004 3.722-6.615 3.722z" fill="#2b4d66"/></g><g><path d="m412.196 274.198h-58.937c-4.666 0-9.017-1.854-12.252-5.22-3.197-3.324-4.925-7.876-4.742-12.485 2.687-68.11 32.742-88.599 34.02-89.438 3.569-2.34 8.362-1.348 10.704 2.221 2.326 3.545 1.361 8.297-2.15 10.656-.583.416-24.803 18.266-27.127 77.17-.022.56.227.941.44 1.162.207.215.568.473 1.107.473h58.937c4.269 0 7.73 3.46 7.73 7.73s-3.461 7.731-7.73 7.731z" fill="#dd636e"/></g><g><path d="m396.555 150.489c-1.978 0-3.956-.755-5.466-2.264l-34.971-34.971c-5.185-5.185-12.08-8.041-19.412-8.041h-45.66c-4.269 0-7.73-3.46-7.73-7.73s3.46-7.73 7.73-7.73h45.66c11.462 0 22.238 4.464 30.343 12.568l34.972 34.971c3.018 3.019 3.018 7.913 0 10.932-1.509 1.51-3.488 2.265-5.466 2.265z" fill="#2b4d66"/></g><g><path d="m472.415 173.63-52.695-52.695c-5.232-5.232-13.715-5.232-18.948 0l-33.523 33.523c-5.232 5.232-5.232 13.715 0 18.948l32.446 32.446c5.219 5.219 8.15 12.296 8.15 19.676v59.319c0 4.554 3.691 8.245 8.245 8.245h26.272c4.554 0 8.245-3.691 8.245-8.245v-58.936c0-7.38 2.932-14.458 8.15-19.676l13.657-13.657c5.233-5.233 5.233-13.716.001-18.948z" fill="#dd636e"/></g><g><path d="m472.415 173.63-52.695-52.695c-5.232-5.232-13.715-5.232-18.948 0l-4.463 4.463 48.232 48.232c5.232 5.232 5.232 13.715 0 18.948l-13.657 13.657c-5.218 5.218-8.15 12.296-8.15 19.676v58.936c0 4.283-3.267 7.802-7.444 8.204.264.025.53.041.801.041h26.272c4.553 0 8.245-3.691 8.245-8.245v-58.936c0-7.38 2.932-14.458 8.15-19.676l13.657-13.657c5.232-5.233 5.232-13.716 0-18.948z" fill="#da4a54"/></g><g><path d="m194.814 197.206c-2.083 0-4.159-.836-5.682-2.488-2.896-3.137-2.698-8.028.439-10.922l36.275-33.471c3.138-2.896 8.029-2.697 10.922.439 2.896 3.137 2.698 8.028-.439 10.922l-36.275 33.471c-1.485 1.372-3.365 2.049-5.24 2.049z" fill="#dd636e"/></g><g><circle cx="175.374" cy="224.213" fill="#365e7d" r="50.695"/></g><g><path d="m175.374 173.518c-5.455 0-10.705.872-15.629 2.466 20.348 6.59 35.067 25.686 35.067 48.229s-14.719 41.639-35.067 48.229c4.924 1.595 10.173 2.467 15.629 2.467 27.998 0 50.695-22.697 50.695-50.696s-22.697-50.695-50.695-50.695z" fill="#2b4d66"/></g><g><path d="m284.168 0h-217.588c-17.076 0-30.919 13.843-30.919 30.918v231.255c0 17.076 13.843 30.918 30.918 30.918h217.588c17.076 0 30.918-13.843 30.918-30.918v-231.255c.001-17.075-13.841-30.918-30.917-30.918zm-2.873 209.687c0 5.692-4.614 10.306-10.306 10.306h-191.231c-5.692 0-10.306-4.614-10.306-10.306v-29.454c0-58.499 47.423-105.921 105.921-105.921 58.499 0 105.921 47.422 105.921 105.921v29.454z" fill="#dd636e"/></g><g><g><path d="m284.168 0h-14.872v131.232c7.661 14.654 12 31.32 12 49.001v29.454c0 5.692-4.614 10.306-10.306 10.306h-1.91c-1.789 15.374-14.848 27.308-30.702 27.308h-202.717v14.872c0 17.076 13.843 30.918 30.918 30.918h217.588c17.076 0 30.918-13.843 30.918-30.918v-231.255c.001-17.075-13.841-30.918-30.917-30.918z" fill="#da4a54"/></g></g><g><path d="m310.086 512h-269.425c-2.761 0-5-2.239-5-5v-40.57c0-2.761 2.239-5 5-5h269.425c2.761 0 5 2.239 5 5v40.57c0 2.761-2.238 5-5 5z" fill="#4a80aa"/></g><path d="m310.086 461.43h-15.812v25.32c0 2.761-2.239 5-5 5h-253.613v15.25c0 2.761 2.239 5 5 5h269.425c2.761 0 5-2.239 5-5v-40.57c0-2.762-2.238-5-5-5z" fill="#407093"/></g></svg>